<svg width="20" height="20" viewBox="0 0 20 20" fill="none" xmlns="http://www.w3.org/2000/svg">
<path d="M9.99996 3.95832C6.66324 3.95832 3.95829 6.66327 3.95829 9.99999C3.95829 13.3367 6.66324 16.0417 9.99996 16.0417C13.3367 16.0417 16.0416 13.3367 16.0416 9.99999C16.0416 9.76198 16.0279 9.52719 16.0011 9.29636C15.9443 8.80708 16.2994 8.33332 16.792 8.33332C17.2216 8.33332 17.5994 8.63171 17.6513 9.05824C17.6889 9.3669 17.7083 9.68118 17.7083 9.99999C17.7083 14.2572 14.2572 17.7083 9.99996 17.7083C5.74276 17.7083 2.29163 14.2572 2.29163 9.99999C2.29163 5.74279 5.74276 2.29166 9.99996 2.29166C11.8109 2.29166 13.476 2.91615 14.7916 3.96153V3.54166C14.7916 3.08142 15.1647 2.70832 15.625 2.70832C16.0852 2.70832 16.4583 3.08142 16.4583 3.54166V5.79023C16.4677 5.80456 16.477 5.81893 16.4862 5.83332H16.4583V6.04166C16.4583 6.50189 16.0852 6.87499 15.625 6.87499H13.125C12.6647 6.87499 12.2916 6.50189 12.2916 6.04166C12.2916 5.58142 12.6647 5.20832 13.125 5.20832H13.6804C12.6613 4.42442 11.3851 3.95832 9.99996 3.95832Z" fill="white"/>
</svg>
