<svg width="12" height="14" viewBox="0 0 12 14" fill="none" xmlns="http://www.w3.org/2000/svg">
<path d="M10.1048 10.2546L9.31352 11.0372C8.73027 11.6097 7.97351 12.3456 7.04295 13.2453C6.46145 13.8076 5.5389 13.8075 4.9575 13.2452L2.6301 10.9813C2.33759 10.694 2.09274 10.4518 1.89552 10.2546C-0.371423 7.98768 -0.371423 4.31224 1.89552 2.0453C4.16246 -0.221642 7.83789 -0.221642 10.1048 2.0453C12.3718 4.31224 12.3718 7.98768 10.1048 10.2546ZM7.66698 6.33309C7.66698 5.41254 6.92072 4.66629 6.00018 4.66629C5.07963 4.66629 4.33338 5.41254 4.33338 6.33309C4.33338 7.25364 5.07963 7.99989 6.00018 7.99989C6.92072 7.99989 7.66698 7.25364 7.66698 6.33309Z" fill="white"/>
</svg>
