<svg width="15" height="18" viewBox="0 0 15 18" fill="none" xmlns="http://www.w3.org/2000/svg">
<path d="M12.9167 4.62502L12.9143 2.85589C13.6438 3.11262 14.1667 3.80776 14.1667 4.62502V10.8743C13.846 10.7405 13.4941 10.6667 13.125 10.6667H12.9167V4.62502ZM0.833333 2.54169V5.04092C1.154 4.9072 1.50587 4.83335 1.875 4.83335H4.24658C4.99968 4.83335 5.71878 5.14693 6.23123 5.6988L10.8443 10.6667H12.0833V2.54169C12.0833 1.50615 11.2439 0.666687 10.2083 0.666687H2.70833C1.6728 0.666687 0.833333 1.50615 0.833333 2.54169ZM1.875 5.66669C0.839466 5.66669 0 6.50615 0 7.54169V14.625C0 16.1208 1.21256 17.3334 2.70833 17.3334H12.2917C13.7874 17.3334 15 16.1208 15 14.625V13.375C15 12.3395 14.1605 11.5 13.125 11.5H10.7534C10.5796 11.5 10.4137 11.4277 10.2954 11.3003L5.62057 6.26584C5.26579 5.88378 4.76796 5.66669 4.24658 5.66669H1.875Z" fill="#ABABAB"/>
</svg>
