<svg width="19" height="17" viewBox="0 0 19 17" fill="none" xmlns="http://www.w3.org/2000/svg">
<path d="M18.1667 5.41665C18.1667 7.94795 16.1146 9.99998 13.5833 9.99998C11.052 9.99998 8.99999 7.94795 8.99999 5.41665C8.99999 2.88534 11.052 0.833313 13.5833 0.833313C16.1146 0.833313 18.1667 2.88534 18.1667 5.41665ZM13.1667 3.92257V7.91665C13.1667 8.14676 13.3532 8.33331 13.5833 8.33331C13.8134 8.33331 14 8.14676 14 7.91665V3.92257L15.372 5.29461C15.5347 5.45733 15.7986 5.45733 15.9613 5.29461C16.124 5.13189 16.124 4.86807 15.9613 4.70535L13.878 2.62202C13.7152 2.4593 13.4514 2.4593 13.2887 2.62202L11.2054 4.70535C11.0426 4.86807 11.0426 5.13189 11.2054 5.29461C11.3681 5.45733 11.6319 5.45733 11.7946 5.29461L13.1667 3.92257ZM16.0833 13.9583V10.2231C16.5425 9.98381 16.9631 9.68062 17.3333 9.32534V13.9583C17.3333 15.4025 16.2029 16.5826 14.7787 16.6624L14.625 16.6666H3.37499C1.9308 16.6666 0.750615 15.5362 0.67094 14.112L0.666656 13.9583V6.04165C0.666656 4.59745 1.79703 3.41727 3.22131 3.3376L3.37499 3.33331H8.58179C8.41701 3.72846 8.29769 4.1473 8.23036 4.58331H3.37499C2.60985 4.58331 1.98233 5.17257 1.92149 5.92204L1.91666 6.04165V6.39915L8.99999 10.1271L10.0877 9.5545C10.4531 9.86353 10.86 10.125 11.2989 10.3294L9.29107 11.3864C9.13491 11.4686 8.95257 11.4803 8.78899 11.4216L8.70891 11.3864L1.91666 7.81165V13.9583C1.91666 14.7235 2.50591 15.351 3.25538 15.4118L3.37499 15.4166H14.625C15.3902 15.4166 16.0177 14.8274 16.0785 14.0779L16.0833 13.9583Z" fill="white"/>
</svg>
