<svg width="16" height="16" viewBox="0 0 16 16" fill="none" xmlns="http://www.w3.org/2000/svg">
<path d="M0.5 2.79167C0.5 1.52601 1.52601 0.5 2.79167 0.5H11.0954C11.8137 0.5 12.5026 0.785341 13.0105 1.29325L14.7067 2.98953C15.2147 3.49744 15.5 4.18632 15.5 4.90461V13.2083C15.5 14.474 14.474 15.5 13.2083 15.5H2.79167C1.52601 15.5 0.5 14.474 0.5 13.2083V2.79167ZM2.79167 1.75C2.21637 1.75 1.75 2.21637 1.75 2.79167V13.2083C1.75 13.7836 2.21637 14.25 2.79167 14.25H3V9.875C3 8.83947 3.83947 8 4.875 8H11.125C12.1605 8 13 8.83947 13 9.875V14.25H13.2083C13.7836 14.25 14.25 13.7836 14.25 13.2083V4.90461C14.25 4.51784 14.0964 4.1469 13.8229 3.87341L12.1266 2.17714C11.9098 1.96038 11.6319 1.81891 11.3333 1.76954V4.04167C11.3333 5.0772 10.4939 5.91667 9.45833 5.91667H5.70833C4.6728 5.91667 3.83333 5.0772 3.83333 4.04167V1.75H2.79167ZM11.75 14.25V9.875C11.75 9.52982 11.4702 9.25 11.125 9.25H4.875C4.52982 9.25 4.25 9.52982 4.25 9.875V14.25H11.75ZM5.08333 1.75V4.04167C5.08333 4.38684 5.36316 4.66667 5.70833 4.66667H9.45833C9.80351 4.66667 10.0833 4.38684 10.0833 4.04167V1.75H5.08333Z" fill="white"/>
</svg>
