<svg width="21" height="21" viewBox="0 0 21 21" fill="none" xmlns="http://www.w3.org/2000/svg">
<path d="M15.5 10C18.5376 10 21 12.4624 21 15.5C21 18.5376 18.5376 21 15.5 21C12.4624 21 10 18.5376 10 15.5C10 12.4624 12.4624 10 15.5 10ZM15.5 11.9992L15.4101 12.0073C15.206 12.0443 15.0451 12.2053 15.0081 12.4094L15 12.4992L14.9996 14.9992L12.4977 15L12.4078 15.0081C12.2037 15.0451 12.0427 15.206 12.0057 15.4101L11.9977 15.5L12.0057 15.5899C12.0427 15.794 12.2037 15.9549 12.4078 15.9919L12.4977 16L15.0007 15.9992L15.0011 18.5035L15.0092 18.5934C15.0462 18.7975 15.2071 18.9584 15.4112 18.9954L15.5011 19.0035L15.591 18.9954C15.7951 18.9584 15.956 18.7975 15.9931 18.5934L16.0011 18.5035L16.0007 15.9992L18.5046 16L18.5944 15.9919C18.7985 15.9549 18.9595 15.794 18.9965 15.5899L19.0046 15.5L18.9965 15.4101C18.9595 15.206 18.7985 15.0451 18.5944 15.0081L18.5046 15L15.9996 14.9992L16 12.4992L15.9919 12.4094C15.9549 12.2053 15.794 12.0443 15.5899 12.0073L15.5 11.9992ZM11.9247 0.503052C12.7225 0.503052 13.4607 0.925526 13.8647 1.61342L14.6793 3H16.75C18.5449 3 20 4.45508 20 6.25L20.0008 10.8104C18.8328 9.68913 17.2469 9 15.5 9C15.0838 9 14.6767 9.03912 14.2822 9.11389C13.6983 7.30705 12.0018 6 10 6C7.51472 6 5.5 8.01472 5.5 10.5C5.5 12.6515 7.00995 14.4504 9.02798 14.8948C9.00941 15.0939 9 15.2959 9 15.5C9 16.7887 9.37505 17.9899 10.0219 19.0002L3.25 19C1.45507 19 0 17.5449 0 15.75V6.25C0 4.45508 1.45507 3 3.25 3H5.33042L6.205 1.57571C6.61425 0.909207 7.34026 0.503052 8.12238 0.503052H11.9247ZM10 7.5C11.3296 7.5 12.4571 8.3649 12.8507 9.56276C11.203 10.2993 9.91871 11.7005 9.33818 13.4252C7.99965 13.1253 7 11.9294 7 10.5C7 8.84315 8.34315 7.5 10 7.5Z" fill="#ABABAB"/>
</svg>
