<svg width="16" height="18" viewBox="0 0 16 18" fill="none" xmlns="http://www.w3.org/2000/svg">
<path d="M4.25224 9.83508C4.02212 9.83508 3.83557 10.0216 3.83557 10.2518V12.7518C3.83557 12.9819 4.02212 13.1684 4.25224 13.1684C4.48236 13.1684 4.6689 12.9819 4.6689 12.7518V12.3354H5.08337C5.77382 12.3354 6.33353 11.7757 6.33353 11.0852C6.33353 10.3948 5.77382 9.83508 5.08337 9.83508H4.25224ZM5.08337 11.5021H4.6689V10.6684H5.08337C5.31358 10.6684 5.5002 10.855 5.5002 11.0852C5.5002 11.3155 5.31358 11.5021 5.08337 11.5021ZM10.498 10.2512C10.4983 10.0213 10.6848 9.83508 10.9147 9.83508H12.1689C12.399 9.83508 12.5856 10.0216 12.5856 10.2518C12.5856 10.4819 12.399 10.6684 12.1689 10.6684H11.3309L11.3298 11.5032H12.1689C12.399 11.5032 12.5856 11.6897 12.5856 11.9199C12.5856 12.15 12.399 12.3365 12.1689 12.3365H11.3303L11.3314 12.7507C11.332 12.9808 11.1459 13.1678 10.9158 13.1684C10.6857 13.169 10.4986 12.9829 10.498 12.7528L10.4959 11.9209L10.4959 11.9193L10.498 10.2512ZM7.58333 9.83508C7.35321 9.83508 7.16667 10.0216 7.16667 10.2518V12.7518C7.16667 12.9819 7.35321 13.1684 7.58333 13.1684H7.99796C8.91843 13.1684 9.66462 12.4222 9.66462 11.5018C9.66463 10.5813 8.91844 9.83508 7.99796 9.83508H7.58333ZM8 12.3351V10.6684C8.4593 10.6695 8.83129 11.0422 8.83129 11.5018C8.83129 11.9613 8.4593 12.334 8 12.3351ZM14.6667 15.6667V14.6965C15.1594 14.4624 15.5 13.9603 15.5 13.3785V9.62502C15.5 9.04327 15.1594 8.54108 14.6667 8.30703V7.19002C14.6667 6.74835 14.4908 6.32419 14.1783 6.01169L9.32083 1.15502C9.30837 1.14256 9.29426 1.13175 9.28024 1.12102C9.26987 1.11308 9.25956 1.10519 9.25 1.09669C9.19083 1.04335 9.1325 0.990854 9.0675 0.946687C9.04644 0.932472 9.02338 0.92125 9.00043 0.91008C8.98706 0.90357 8.97372 0.897078 8.96083 0.89002C8.94692 0.882182 8.93305 0.874159 8.91917 0.866126C8.874 0.839996 8.82864 0.81375 8.78083 0.793354C8.61667 0.72502 8.44 0.690854 8.26083 0.678354C8.24441 0.677306 8.22814 0.675086 8.21183 0.672861C8.18924 0.669779 8.16657 0.666687 8.14333 0.666687H3C2.08 0.666687 1.33333 1.41335 1.33333 2.33335V8.30703C0.840636 8.54108 0.5 9.04327 0.5 9.62502V13.3785C0.5 13.9603 0.840636 14.4624 1.33333 14.6965V15.6667C1.33333 16.5867 2.08 17.3334 3 17.3334H13C13.92 17.3334 14.6667 16.5867 14.6667 15.6667ZM13 16.0834H3C2.77 16.0834 2.58333 15.8959 2.58333 15.6667V14.8368H13.4167V15.6667C13.4167 15.8959 13.23 16.0834 13 16.0834ZM13.4167 7.33335V8.16669H2.58333V2.33335C2.58333 2.10419 2.77 1.91669 3 1.91669H8V5.66669C8 6.58669 8.74667 7.33335 9.66667 7.33335H13.4167ZM12.4817 6.08335H9.66667C9.43667 6.08335 9.25 5.89585 9.25 5.66669V2.85085L12.4817 6.08335ZM1.95833 9.41669H14.0417C14.1567 9.41669 14.25 9.50996 14.25 9.62502V13.3785C14.25 13.4936 14.1567 13.5868 14.0417 13.5868H1.95833C1.84327 13.5868 1.75 13.4936 1.75 13.3785V9.62502C1.75 9.50996 1.84327 9.41669 1.95833 9.41669Z" fill="white"/>
</svg>
