<svg width="14" height="18" viewBox="0 0 14 18" fill="none" xmlns="http://www.w3.org/2000/svg">
<path d="M1.58568 2.85589L1.58334 4.62502V13.3785C1.58334 14.8743 2.79591 16.0869 4.29168 16.0869L11.4719 16.0871C11.2145 16.8152 10.52 17.3369 9.70368 17.3369H4.29168C2.10555 17.3369 0.333344 15.5647 0.333344 13.3785V4.62502C0.333344 3.80776 0.856215 3.11262 1.58568 2.85589ZM11.7917 0.666687C12.8272 0.666687 13.6667 1.50615 13.6667 2.54169V13.375C13.6667 14.4106 12.8272 15.25 11.7917 15.25H4.29168C3.25614 15.25 2.41668 14.4106 2.41668 13.375V2.54169C2.41668 1.50615 3.25614 0.666687 4.29168 0.666687H11.7917ZM11.7917 1.91669H4.29168C3.9465 1.91669 3.66668 2.19651 3.66668 2.54169V13.375C3.66668 13.7202 3.9465 14 4.29168 14H11.7917C12.1369 14 12.4167 13.7202 12.4167 13.375V2.54169C12.4167 2.19651 12.1369 1.91669 11.7917 1.91669Z" fill="white"/>
</svg>
