<svg width="20" height="20" viewBox="0 0 20 20" fill="none" xmlns="http://www.w3.org/2000/svg">
<path fill-rule="evenodd" clip-rule="evenodd" d="M2.09885 0.791748C1.37689 0.791748 0.791626 1.37701 0.791626 2.09897V17.9011C0.791626 18.6231 1.37689 19.2084 2.09885 19.2084H17.9011C18.623 19.2084 19.2083 18.6231 19.2083 17.9011V2.09897C19.2083 1.37701 18.623 0.791748 17.9011 0.791748H2.09885ZM4.92532 6.51105C5.80767 6.51105 6.52296 5.79576 6.52296 4.91341C6.52296 4.03106 5.80767 3.31577 4.92532 3.31577C4.04297 3.31577 3.32768 4.03106 3.32768 4.91341C3.32768 5.79576 4.04297 6.51105 4.92532 6.51105ZM7.98613 7.69175H10.6339V8.90473C10.6339 8.90473 11.3525 7.46769 13.3074 7.46769C15.0514 7.46769 16.496 8.32679 16.496 10.9454V16.4673H13.7522V11.6145C13.7522 10.0698 12.9275 9.89988 12.299 9.89988C10.9948 9.89988 10.7715 11.0248 10.7715 11.816V16.4673H7.98613V7.69175ZM6.31803 7.69176H3.53262V16.4673H6.31803V7.69176Z" fill="white"/>
</svg>
