<svg width="24" height="24" viewBox="0 0 24 24" fill="none" xmlns="http://www.w3.org/2000/svg">
<path fill-rule="evenodd" clip-rule="evenodd" d="M12.8896 2.20499C15.3041 2.32366 17.554 3.31935 19.2725 5.03894C21.1055 6.87309 22.1144 9.31117 22.1134 11.904C22.1112 17.2544 17.7555 21.6078 12.4047 21.6078C10.3926 21.6078 8.79361 20.9895 7.76114 20.4267L2.61438 21.7761L3.99177 16.7475C3.14215 15.2759 2.69509 13.6066 2.69579 11.8963C2.69794 6.54594 7.05328 2.19299 12.4046 2.19299L12.8896 2.20499ZM7.99958 18.6699L8.29429 18.8447C9.53325 19.5796 10.9534 19.9684 12.4014 19.9689H12.4047C16.8524 19.9689 20.4724 16.3507 20.4742 11.9034C20.475 9.7483 19.6364 7.72187 18.1129 6.19736C16.5893 4.67276 14.5633 3.83267 12.4079 3.83196C7.95679 3.83196 4.33679 7.44985 4.33501 11.8968C4.3344 13.4209 4.76101 14.9051 5.56878 16.1892L5.76065 16.4944L4.94545 19.4707L7.99958 18.6699ZM17.2959 14.2115C17.2353 14.1103 17.0736 14.0497 16.831 13.9283C16.5884 13.8069 15.3957 13.2204 15.1734 13.1394C14.951 13.0585 14.7893 13.0181 14.6276 13.2608C14.4659 13.5035 14.001 14.0497 13.8594 14.2115C13.7179 14.3733 13.5764 14.3936 13.3339 14.2722C13.0913 14.1509 12.3096 13.8948 11.383 13.0687C10.6618 12.4258 10.175 11.6318 10.0335 11.389C9.89199 11.1463 10.0184 11.0151 10.1398 10.8942C10.249 10.7855 10.3824 10.611 10.5037 10.4694C10.625 10.3279 10.6654 10.2267 10.7463 10.0649C10.8272 9.90305 10.7867 9.76151 10.7261 9.64014C10.6654 9.51872 10.1803 8.32524 9.97816 7.83974C9.7812 7.36699 9.58121 7.43099 9.43231 7.42352C9.29098 7.41652 9.1291 7.41498 8.96741 7.41498C8.80567 7.41498 8.54285 7.47562 8.32049 7.71841C8.09812 7.96111 7.47143 8.54777 7.47143 9.74116C7.47143 10.9347 8.34071 12.0876 8.46201 12.2494C8.5833 12.4113 10.1726 14.8603 12.6061 15.9106C13.1849 16.1605 13.6367 16.3096 13.989 16.4214C14.5702 16.6059 15.099 16.5799 15.517 16.5174C15.9831 16.4478 16.9523 15.9309 17.1544 15.3646C17.3566 14.7981 17.3566 14.3126 17.2959 14.2115Z" fill="white"/>
</svg>
