<svg width="120" height="48" viewBox="0 0 120 48" fill="none" xmlns="http://www.w3.org/2000/svg">
<path fill-rule="evenodd" clip-rule="evenodd" d="M103.46 17.3743H96.8739C96.0909 17.3743 95.4551 16.74 95.4551 15.9555V9.36963C95.4551 8.58674 96.0894 7.9509 96.8739 7.9509H103.46C104.243 7.9509 104.878 8.58515 104.878 9.36963V15.9555C104.878 16.74 104.244 17.3743 103.46 17.3743Z" fill="#047FB2"/>
<path fill-rule="evenodd" clip-rule="evenodd" d="M112.203 9.9534H107.655C107.114 9.9534 106.675 9.51465 106.675 8.97337V4.42534C106.675 3.88406 107.114 3.44537 107.655 3.44537H112.203C112.744 3.44537 113.183 3.88406 113.183 4.42534V8.97337C113.183 9.51465 112.744 9.9534 112.203 9.9534Z" fill="#047FB2"/>
<path fill-rule="evenodd" clip-rule="evenodd" d="M103.005 43.6038L100.482 39.2125C99.9367 38.2631 98.8112 37.8452 97.7603 38.1506C96.6884 38.4625 95.7369 38.4071 94.9939 37.9766C94.2165 37.5271 93.7342 36.7105 93.7342 35.8449V2.5951C93.7342 1.21043 92.6137 0.0884094 91.2305 0.0884094H86.601C85.2178 0.0884094 84.097 1.21043 84.097 2.5951V7.96289H79.2558C77.8915 7.96289 76.7852 9.07066 76.7852 10.4363V14.9164C76.7852 16.2821 77.8915 17.3898 79.2558 17.3898H84.097V35.8449C84.097 40.1431 86.4237 44.1595 90.1683 46.3289C92.0951 47.4447 94.2321 48 96.4466 48C98.2249 48 100.052 47.6425 101.864 46.9287C103.179 46.4113 103.71 44.8288 103.005 43.6038Z" fill="#047FB2"/>
<path fill-rule="evenodd" clip-rule="evenodd" d="M58.7875 48C47.7811 48 38.8271 39.0304 38.8271 28.0049C38.8271 16.9793 47.7811 8.0098 58.7875 8.0098C64.7174 8.0098 70.3248 10.6863 74.0839 15.1623C75.2341 16.5314 74.8548 18.6159 73.3126 19.5181L70.3723 21.2401C69.1888 21.9334 67.6925 21.6928 66.7652 20.683C64.7348 18.4734 61.8403 17.1645 58.7892 17.1645C52.8231 17.1645 47.9675 22.0268 47.9675 28.0049C47.9675 33.983 52.8213 38.8452 58.7892 38.8452C61.8371 38.8452 64.7286 37.541 66.7572 35.3363C67.6863 34.328 69.1826 34.089 70.3661 34.7823L73.3047 36.5075C74.8468 37.4128 75.2247 39.4957 74.0727 40.8647C70.3107 45.3299 64.7094 48 58.7875 48Z" fill="#047FB2"/>
<path fill-rule="evenodd" clip-rule="evenodd" d="M32.1079 12.6131C35.3103 15.4612 36.9718 19.5942 36.9718 25.3364C36.9718 25.3364 36.9718 28.7273 36.9718 33.9758C36.9718 42.7023 28.8892 46.6692 25.3228 47.4634C22.5061 48.0901 12.735 48.5981 8.31844 46.3827C6.17641 45.3085 0.662598 41.927 0.662598 35.8208C0.662598 32.2321 1.74686 29.6229 4.4487 27.5643C7.14848 25.5073 11.3204 24.4788 16.9605 24.4788H27.615C27.615 22.0389 26.6111 20.1986 25.4306 19.1654C23.6219 17.5831 20.6865 17.2366 18.7185 17.2366C15.8683 17.2366 12.313 18.7477 9.85179 20.2509C8.28192 21.2098 7.00154 20.5183 5.92022 18.8995L4.13567 15.7619C3.25342 14.0435 4.0061 12.7808 5.6437 11.7586C8.5714 9.93099 13.9998 7.92148 18.551 7.92148C24.5248 7.91989 28.9051 9.76646 32.1079 12.6131ZM24.316 37.9441C25.8305 37.2528 26.9418 35.6246 27.2784 34.6927C27.615 33.7607 27.5361 31.6071 27.5361 31.6071H17.6767C12.988 31.6071 10.6436 32.7843 10.6436 35.1404C10.6436 36.2623 11.3092 37.1136 12.4567 37.7672C13.6046 38.4221 16.782 38.802 18.7848 38.802C20.7372 38.8034 22.8015 38.6359 24.316 37.9441Z" fill="#047FB2"/>
<path fill-rule="evenodd" clip-rule="evenodd" d="M118.703 4.18165H115.76C115.411 4.18165 115.126 3.90072 115.126 3.55203V0.629624C115.126 0.282464 115.409 0 115.76 0H118.703C119.053 0 119.338 0.280874 119.338 0.629624V3.55203C119.338 3.90072 119.055 4.18165 118.703 4.18165Z" fill="#047FB2"/>
</svg>
